<?xml version="1.0" standalone="no"?>
<!DOCTYPE svg PUBLIC "-//W3C//DTD SVG 20010904//EN"
 "http://www.w3.org/TR/2001/REC-SVG-20010904/DTD/svg10.dtd">
<svg version="1.0" xmlns="http://www.w3.org/2000/svg"
 width="360.000000pt" height="360.000000pt" viewBox="0 0 360.000000 360.000000"
 preserveAspectRatio="xMidYMid meet">

<g transform="translate(0.000000,360.000000) scale(0.100000,-0.100000)"
fill="#000000" stroke="none">
<path d="M1715 3150 c-183 -32 -332 -157 -402 -337 -22 -58 -27 -88 -31 -200
l-4 -133 -190 0 c-186 0 -189 0 -213 -24 -14 -14 -26 -41 -29 -67 -10 -73
-166 -1807 -166 -1845 0 -26 8 -43 29 -65 l29 -29 1057 0 c705 0 1063 3 1076
10 10 6 26 24 34 40 14 28 13 63 -20 433 -40 445 -96 1066 -120 1311 -8 88
-15 165 -15 171 0 7 -12 24 -26 38 l-26 27 -192 2 -191 3 -6 140 c-6 153 -19
201 -78 294 -42 65 -126 143 -189 175 -94 48 -234 71 -327 56z m231 -223 c57
-29 112 -85 146 -149 19 -37 23 -62 26 -171 l4 -127 -323 2 -324 3 -3 58 c-4
82 13 191 38 240 45 88 141 160 234 176 61 10 145 -3 202 -32z m-666 -732 c0
-64 5 -105 15 -124 29 -57 115 -65 155 -14 17 22 20 41 20 129 l0 104 323 0
324 0 6 -107 c7 -105 8 -109 38 -137 26 -23 38 -27 67 -22 19 3 45 15 58 27
21 20 24 32 26 128 l3 106 127 3 126 3 6 -48 c5 -41 97 -1072 126 -1418 6 -66
12 -135 15 -153 l4 -32 -920 0 -920 0 6 53 c3 28 21 234 40 457 59 679 95
1073 100 1108 l6 32 124 0 125 0 0 -95z"/>
</g>
</svg>
