<?xml version="1.0" encoding="UTF-8"?>
<!DOCTYPE svg PUBLIC "-//W3C//DTD SVG 1.1//EN" "http://www.w3.org/Graphics/SVG/1.1/DTD/svg11.dtd">
<svg xmlns="http://www.w3.org/2000/svg" version="1.1" width="360px" height="360px" style="shape-rendering:geometricPrecision; text-rendering:geometricPrecision; image-rendering:optimizeQuality; fill-rule:evenodd; clip-rule:evenodd" xmlns:xlink="http://www.w3.org/1999/xlink">
<g><path style="opacity:1" fill="#fdfdfd" d="M -0.5,-0.5 C 119.5,-0.5 239.5,-0.5 359.5,-0.5C 359.5,119.5 359.5,239.5 359.5,359.5C 239.5,359.5 119.5,359.5 -0.5,359.5C -0.5,239.5 -0.5,119.5 -0.5,-0.5 Z"/></g>
<g><path style="opacity:1" fill="#020202" d="M 230.5,87.5 C 230.5,95.5 230.5,103.5 230.5,111.5C 242.833,111.5 255.167,111.5 267.5,111.5C 270.306,112.321 272.473,113.988 274,116.5C 279.916,178.995 285.75,241.495 291.5,304C 291.348,309.001 289.015,312.335 284.5,314C 214.167,314.667 143.833,314.667 73.5,314C 71,312.833 69.1667,311 68,308.5C 72.1881,244.392 77.8548,180.392 85,116.5C 85.8333,114.333 87.3333,112.833 89.5,112C 102.162,111.5 114.829,111.333 127.5,111.5C 123.919,86.6965 131.919,66.8632 151.5,52C 177.263,38.7886 200.096,42.6219 220,63.5C 225.408,70.6511 228.908,78.6511 230.5,87.5 Z"/></g>
<g><path style="opacity:1" fill="#fcfcfc" d="M 211.5,110.5 C 190.167,110.5 168.833,110.5 147.5,110.5C 147.5,104.5 147.5,98.5 147.5,92.5C 148.131,82.6823 152.465,74.8489 160.5,69C 180.463,58.2067 196.629,62.3734 209,81.5C 209.667,83.5 210.333,85.5 211,87.5C 211.5,95.1594 211.666,102.826 211.5,110.5 Z"/></g>
<g><path style="opacity:1" fill="#8d8d8d" d="M 147.5,92.5 C 147.5,98.5 147.5,104.5 147.5,110.5C 168.833,110.5 190.167,110.5 211.5,110.5C 190.006,111.497 168.34,111.831 146.5,111.5C 146.177,104.978 146.51,98.6446 147.5,92.5 Z"/></g>
<g><path style="opacity:1" fill="#909090" d="M 230.5,87.5 C 231.492,94.9818 231.825,102.648 231.5,110.5C 243.678,110.172 255.678,110.505 267.5,111.5C 255.167,111.5 242.833,111.5 230.5,111.5C 230.5,103.5 230.5,95.5 230.5,87.5 Z"/></g>
<g><path style="opacity:1" fill="#fdfdfd" d="M 270.5,290.5 C 270.5,291.833 270.5,293.167 270.5,294.5C 209.833,294.5 149.167,294.5 88.5,294.5C 88.5,292.5 88.5,290.5 88.5,288.5C 92.4045,236.454 96.9045,184.454 102,132.5C 110.23,130.548 118.73,129.882 127.5,130.5C 127.334,137.175 127.5,143.842 128,150.5C 130.871,157.4 135.705,159.233 142.5,156C 144.049,154.786 145.215,153.286 146,151.5C 146.5,144.508 146.666,137.508 146.5,130.5C 168.167,130.5 189.833,130.5 211.5,130.5C 211.779,137.844 212.279,145.177 213,152.5C 218.597,158.862 224.263,158.862 230,152.5C 230.5,145.174 230.666,137.841 230.5,130.5C 239.167,130.5 247.833,130.5 256.5,130.5C 261.717,183.775 266.384,237.108 270.5,290.5 Z"/></g>
<g><path style="opacity:1" fill="#e2e2e2" d="M 88.5,288.5 C 88.5,290.5 88.5,292.5 88.5,294.5C 149.167,294.5 209.833,294.5 270.5,294.5C 270.5,293.167 270.5,291.833 270.5,290.5C 271.451,291.919 271.784,293.585 271.5,295.5C 210.167,295.5 148.833,295.5 87.5,295.5C 87.1984,292.941 87.5318,290.607 88.5,288.5 Z"/></g>
</svg>
