<?xml version="1.0" encoding="UTF-8"?>
<!DOCTYPE svg PUBLIC "-//W3C//DTD SVG 1.1//EN" "http://www.w3.org/Graphics/SVG/1.1/DTD/svg11.dtd">
<svg xmlns="http://www.w3.org/2000/svg" version="1.1" width="105px" height="70px" style="shape-rendering:geometricPrecision; text-rendering:geometricPrecision; image-rendering:optimizeQuality; fill-rule:evenodd; clip-rule:evenodd" xmlns:xlink="http://www.w3.org/1999/xlink">
<g><path style="opacity:1" fill="#fcfcfc" d="M -0.5,-0.5 C 34.5,-0.5 69.5,-0.5 104.5,-0.5C 104.5,22.8333 104.5,46.1667 104.5,69.5C 90.1667,69.5 75.8333,69.5 61.5,69.5C 69.7977,60.7017 78.2977,52.035 87,43.5C 90.5486,37.9739 91.882,31.9739 91,25.5C 90.7216,24.5842 90.2216,23.9175 89.5,23.5C 88.338,18.3373 85.338,14.6706 80.5,12.5C 80.3893,11.8826 80.056,11.3826 79.5,11C 73.7233,8.26818 68.0567,8.10151 62.5,10.5C 60.6203,10.2291 59.287,10.8958 58.5,12.5C 56.264,13.3891 54.264,14.7224 52.5,16.5C 50.3297,13.9881 47.663,12.3215 44.5,11.5C 40.0862,8.69905 35.4196,8.03238 30.5,9.5C 23.874,10.1306 19.2073,13.464 16.5,19.5C 14.8958,20.287 14.2291,21.6203 14.5,23.5C 13.5655,24.5676 13.2322,25.901 13.5,27.5C 12.2951,33.6727 13.7951,39.3394 18,44.5C 27.0049,52.3384 35.5049,60.6718 43.5,69.5C 28.8333,69.5 14.1667,69.5 -0.5,69.5C -0.5,46.1667 -0.5,22.8333 -0.5,-0.5 Z"/></g>
<g><path style="opacity:1" fill="#141414" d="M 30.5,9.5 C 35.4196,8.03238 40.0862,8.69905 44.5,11.5C 39.9338,10.1927 35.2671,9.52604 30.5,9.5 Z"/></g>
<g><path style="opacity:1" fill="#1d1d1d" d="M 80.5,12.5 C 74.6544,10.7671 68.6544,10.1004 62.5,10.5C 68.0567,8.10151 73.7233,8.26818 79.5,11C 80.056,11.3826 80.3893,11.8826 80.5,12.5 Z"/></g>
<g><path style="opacity:1" fill="#fbfbfb" d="M 30.5,9.5 C 35.2671,9.52604 39.9338,10.1927 44.5,11.5C 47.1216,13.7819 49.7883,16.1152 52.5,18.5C 54.8545,16.8122 56.8545,14.8122 58.5,12.5C 60.153,12.3404 61.4863,11.6737 62.5,10.5C 68.6544,10.1004 74.6544,10.7671 80.5,12.5C 83.9083,15.9009 86.9083,19.5675 89.5,23.5C 90.3319,30.2554 89.1652,36.5887 86,42.5C 76.9644,51.3683 68.131,60.3683 59.5,69.5C 54.8333,69.5 50.1667,69.5 45.5,69.5C 37.1717,60.3385 28.3383,51.6719 19,43.5C 15.3268,38.8109 13.4935,33.4775 13.5,27.5C 13.2322,25.901 13.5655,24.5676 14.5,23.5C 15.6737,22.4863 16.3404,21.153 16.5,19.5C 20.377,14.9405 25.0436,11.6072 30.5,9.5 Z"/></g>
<g><path style="opacity:1" fill="#0c0c0c" d="M 62.5,10.5 C 61.4863,11.6737 60.153,12.3404 58.5,12.5C 59.287,10.8958 60.6203,10.2291 62.5,10.5 Z"/></g>
<g><path style="opacity:1" fill="#0f0f0f" d="M 44.5,11.5 C 47.663,12.3215 50.3297,13.9881 52.5,16.5C 54.264,14.7224 56.264,13.3891 58.5,12.5C 56.8545,14.8122 54.8545,16.8122 52.5,18.5C 49.7883,16.1152 47.1216,13.7819 44.5,11.5 Z"/></g>
<g><path style="opacity:1" fill="#242424" d="M 30.5,9.5 C 25.0436,11.6072 20.377,14.9405 16.5,19.5C 19.2073,13.464 23.874,10.1306 30.5,9.5 Z"/></g>
<g><path style="opacity:1" fill="#1c1c1c" d="M 80.5,12.5 C 85.338,14.6706 88.338,18.3373 89.5,23.5C 86.9083,19.5675 83.9083,15.9009 80.5,12.5 Z"/></g>
<g><path style="opacity:1" fill="#0d0d0d" d="M 16.5,19.5 C 16.3404,21.153 15.6737,22.4863 14.5,23.5C 14.2291,21.6203 14.8958,20.287 16.5,19.5 Z"/></g>
<g><path style="opacity:1" fill="#242424" d="M 13.5,27.5 C 13.4935,33.4775 15.3268,38.8109 19,43.5C 28.3383,51.6719 37.1717,60.3385 45.5,69.5C 44.8333,69.5 44.1667,69.5 43.5,69.5C 35.5049,60.6718 27.0049,52.3384 18,44.5C 13.7951,39.3394 12.2951,33.6727 13.5,27.5 Z"/></g>
<g><path style="opacity:1" fill="#1f1f1f" d="M 89.5,23.5 C 90.2216,23.9175 90.7216,24.5842 91,25.5C 91.882,31.9739 90.5486,37.9739 87,43.5C 78.2977,52.035 69.7977,60.7017 61.5,69.5C 60.8333,69.5 60.1667,69.5 59.5,69.5C 68.131,60.3683 76.9644,51.3683 86,42.5C 89.1652,36.5887 90.3319,30.2554 89.5,23.5 Z"/></g>
</svg>
