<?xml version="1.0" standalone="no"?>
<!DOCTYPE svg PUBLIC "-//W3C//DTD SVG 20010904//EN"
 "http://www.w3.org/TR/2001/REC-SVG-20010904/DTD/svg10.dtd">
<svg version="1.0" xmlns="http://www.w3.org/2000/svg"
 width="105.000000pt" height="70.000000pt" viewBox="0 0 105.000000 70.000000"
 preserveAspectRatio="xMidYMid meet">

<g transform="translate(0.000000,70.000000) scale(0.100000,-0.100000)"
fill="#000000" stroke="none">
<path d="M275 596 c-22 -8 -58 -35 -81 -60 -69 -75 -80 -168 -31 -248 25 -40
285 -294 293 -286 2 3 -56 64 -130 135 -156 149 -179 183 -179 256 0 63 19
102 72 150 83 75 196 71 284 -11 l27 -26 33 31 c40 40 75 53 137 53 64 0 97
-13 143 -58 63 -61 78 -148 40 -227 -8 -16 -76 -92 -151 -167 -75 -76 -132
-138 -127 -138 16 0 271 262 288 295 43 87 25 187 -46 252 -81 75 -195 79
-280 11 l-38 -30 -22 20 c-59 53 -160 74 -232 48z"/>
</g>
</svg>
