<?xml version="1.0" encoding="UTF-8"?>
<!DOCTYPE svg PUBLIC "-//W3C//DTD SVG 1.1//EN" "http://www.w3.org/Graphics/SVG/1.1/DTD/svg11.dtd">
<svg xmlns="http://www.w3.org/2000/svg" version="1.1" width="105px" height="70px" style="shape-rendering:geometricPrecision; text-rendering:geometricPrecision; image-rendering:optimizeQuality; fill-rule:evenodd; clip-rule:evenodd" xmlns:xlink="http://www.w3.org/1999/xlink">
<g><path style="opacity:1" fill="#fefdfd" d="M -0.5,-0.5 C 34.5,-0.5 69.5,-0.5 104.5,-0.5C 104.5,22.8333 104.5,46.1667 104.5,69.5C 98.5,69.5 92.5,69.5 86.5,69.5C 75.2645,49.3642 63.7645,29.3642 52,9.5C 40.2355,29.3642 28.7355,49.3642 17.5,69.5C 11.5,69.5 5.5,69.5 -0.5,69.5C -0.5,46.1667 -0.5,22.8333 -0.5,-0.5 Z"/></g>
<g><path style="opacity:1" fill="#f97726" d="M 86.5,69.5 C 85.1667,69.5 83.8333,69.5 82.5,69.5C 72.5608,51.7214 62.3942,34.0548 52,16.5C 41.6058,34.0548 31.4392,51.7214 21.5,69.5C 20.1667,69.5 18.8333,69.5 17.5,69.5C 28.7355,49.3642 40.2355,29.3642 52,9.5C 63.7645,29.3642 75.2645,49.3642 86.5,69.5 Z"/></g>
<g><path style="opacity:1" fill="#fddc58" d="M 82.5,69.5 C 62.1667,69.5 41.8333,69.5 21.5,69.5C 31.4392,51.7214 41.6058,34.0548 52,16.5C 62.3942,34.0548 72.5608,51.7214 82.5,69.5 Z"/></g>
</svg>
