<?xml version="1.0" encoding="UTF-8"?>
<!DOCTYPE svg PUBLIC "-//W3C//DTD SVG 1.1//EN" "http://www.w3.org/Graphics/SVG/1.1/DTD/svg11.dtd">
<svg xmlns="http://www.w3.org/2000/svg" version="1.1" width="105px" height="70px" style="shape-rendering:geometricPrecision; text-rendering:geometricPrecision; image-rendering:optimizeQuality; fill-rule:evenodd; clip-rule:evenodd" xmlns:xlink="http://www.w3.org/1999/xlink">
<g><path style="opacity:1" fill="#fcfcfc" d="M -0.5,-0.5 C 34.5,-0.5 69.5,-0.5 104.5,-0.5C 104.5,22.8333 104.5,46.1667 104.5,69.5C 96.8333,69.5 89.1667,69.5 81.5,69.5C 96.1594,48.9315 94.4927,29.7649 76.5,12C 56.2564,-0.631662 37.7564,1.53501 21,18.5C 9.41092,35.8683 9.91092,52.8683 22.5,69.5C 14.8333,69.5 7.16667,69.5 -0.5,69.5C -0.5,46.1667 -0.5,22.8333 -0.5,-0.5 Z"/></g>
<g><path style="opacity:1" fill="#050505" d="M 81.5,69.5 C 61.8333,69.5 42.1667,69.5 22.5,69.5C 9.91092,52.8683 9.41092,35.8683 21,18.5C 37.7564,1.53501 56.2564,-0.631662 76.5,12C 94.4927,29.7649 96.1594,48.9315 81.5,69.5 Z"/></g>
<g><path style="opacity:1" fill="#f7f7f7" d="M 46.5,5.5 C 71.6569,5.32722 85.9903,17.6606 89.5,42.5C 89.2081,51.0442 86.5415,58.7109 81.5,65.5C 78.5304,62.0124 74.8637,59.5124 70.5,58C 58.1667,57.3333 45.8333,57.3333 33.5,58C 29.1363,59.5124 25.4696,62.0124 22.5,65.5C 10.3739,46.7294 12.3739,29.5627 28.5,14C 33.9896,9.90197 39.9896,7.06864 46.5,5.5 Z"/></g>
<g><path style="opacity:1" fill="#020202" d="M 46.5,18.5 C 63.9267,17.422 71.4267,25.422 69,42.5C 63.7885,52.7953 55.6219,56.2953 44.5,53C 35.3517,47.5422 32.185,39.7088 35,29.5C 37.4373,24.2262 41.2706,20.5595 46.5,18.5 Z"/></g>
</svg>
