<?xml version="1.0" standalone="no"?>
<!DOCTYPE svg PUBLIC "-//W3C//DTD SVG 20010904//EN"
 "http://www.w3.org/TR/2001/REC-SVG-20010904/DTD/svg10.dtd">
<svg version="1.0" xmlns="http://www.w3.org/2000/svg"
 width="1080.000000pt" height="1080.000000pt" viewBox="0 0 1080.000000 1080.000000"
 preserveAspectRatio="xMidYMid meet">

<g transform="translate(0.000000,1080.000000) scale(0.100000,-0.100000)"
fill="#000000" stroke="none">
<path d="M5090 9709 c-685 -51 -1331 -254 -1910 -601 -800 -479 -1438 -1224
-1788 -2088 -194 -480 -296 -976 -309 -1500 -13 -533 61 -1026 225 -1510 269
-794 748 -1468 1428 -2011 221 -176 537 -374 780 -489 798 -378 1632 -507
2502 -385 450 63 895 202 1304 406 408 204 745 442 1066 753 749 727 1186
1614 1308 2661 24 202 24 663 0 888 -130 1231 -734 2292 -1731 3044 -492 371
-1133 649 -1775 772 -313 60 -771 85 -1100 60z m635 -279 c581 -49 1125 -213
1625 -490 730 -404 1312 -1015 1680 -1765 292 -595 424 -1212 407 -1895 -20
-789 -261 -1524 -717 -2185 -45 -66 -88 -126 -94 -133 -10 -10 -25 4 -76 70
-79 103 -259 284 -365 367 -207 164 -449 297 -680 374 -164 54 -233 71 -410
100 -127 21 -159 21 -1590 25 -950 2 -1511 0 -1605 -7 -506 -37 -926 -200
-1306 -507 -105 -85 -277 -260 -348 -354 -27 -36 -52 -69 -56 -73 -9 -10 -133
162 -233 320 -77 123 -227 414 -282 548 -156 375 -248 735 -297 1150 -21 177
-17 747 5 915 107 787 384 1435 877 2056 126 159 444 475 610 608 637 507
1386 807 2185 875 144 12 529 13 670 1z"/>
<path d="M5135 8134 c-293 -39 -580 -145 -818 -300 -444 -289 -744 -707 -871
-1211 -96 -380 -70 -815 70 -1190 235 -630 788 -1111 1444 -1256 962 -214
1937 300 2306 1215 89 222 132 421 141 658 35 888 -497 1679 -1332 1985 -278
102 -641 140 -940 99z"/>
</g>
</svg>
